<svg xmlns="http://www.w3.org/2000/svg" viewBox="0 0 48 48">
  <defs><linearGradient id="g" x1="0" x2="1"><stop offset="0" stop-color="#ff4fd8"/><stop offset="1" stop-color="#ff8a2a"/></linearGradient></defs>
  <path fill="#0b0b0f" d="M8 10c0-2.2 1.8-4 4-4h24c2.2 0 4 1.8 4 4v28c0 2.2-1.8 4-4 4H12c-2.2 0-4-1.8-4-4V10z"/>
  <path fill="url(#g)" d="M15 14h18a2 2 0 0 1 2 2v16a8 8 0 0 1-8 8H21a8 8 0 0 1-8-8V16a2 2 0 0 1 2-2z" opacity="0.9"/>
  <path fill="#fff" d="M18 19h12v2H18v-2zm0 5h9v2h-9v-2zm0 5h12v2H18v-2z" opacity="0.9"/>
</svg>
